/* XPM */
static const char*arc_xpm[]={
"30 30 2 1",
". c none",
"# c #000000",
"..............................",
"..............................",
"..............................",
"..............................",
"..............................",
".......#...............#......",
"......###.............###.....",
".....##.##...........##.##....",
"....##...##.........##...##...",
"....##....##.......##....##...",
"...##......##.....##......##..",
"...##.......##...##.......##..",
"...##........##.##........##..",
"...##.........###.........##..",
"...##..........#..........##..",
"...##.....................##..",
"...##.....................##..",
"...##.....................##..",
"...##.....................##..",
"....##...................##...",
"....##...................##...",
".....##.................##....",
"......##...............##.....",
"......###.............###.....",
"........###.........###.......",
".........#############........",
"...........#########..........",
"..............................",
"..............................",
".............................."};
