/* XPM */
static const char * d_fileopen2_xpm[] = {
"22 22 60 1",
" 	c None",
".	c #808080",
"+	c #606060",
"@	c #D5D5D5",
"#	c #DDDDDD",
"$	c #BEBEBE",
"%	c #FEFEFE",
"&	c #FDFDFD",
"*	c #D4D4D4",
"=	c #FBFBFB",
"-	c #FAFAFA",
";	c #D3D3D3",
">	c #D1D1D1",
",	c #F7F7F7",
"'	c #F8F8F8",
")	c #B6B6B6",
"!	c #B7B7B7",
"~	c #CDCDCD",
"{	c #F3F3F3",
"]	c #F4F4F4",
"^	c #F5F5F5",
"/	c #CFCFCF",
"(	c #B4B4B4",
"_	c #D0D0D0",
":	c #CBCBCB",
"<	c #EFEFEF",
"[	c #F0F0F0",
"}	c #F1F1F1",
"|	c #CCCCCC",
"1	c #C8C8C8",
"2	c #EBEBEB",
"3	c #EDEDED",
"4	c #CACACA",
"5	c #B1B1B1",
"6	c #CECECE",
"7	c #C4C4C4",
"8	c #E6E6E6",
"9	c #E7E7E7",
"0	c #C7C7C7",
"a	c #C1C1C1",
"b	c #E2E2E2",
"c	c #ADADAD",
"d	c #C6C6C6",
"e	c #C9C9C9",
"f	c #C3C3C3",
"g	c #B5B5B5",
"h	c #D9D9D9",
"i	c #A9A9A9",
"j	c #BFBFBF",
"k	c #C2C2C2",
"l	c #C5C5C5",
"m	c #C0C0C0",
"n	c #A8A8A8",
"o	c #AFAFAF",
"p	c #BDBDBD",
"q	c #ACACAC",
"r	c #A7A7A7",
"s	c #BCBCBC",
"t	c #ABABAB",
"u	c #AAAAAA",
"                      ",
"   ..++..+            ",
"   .@..#$..+  +       ",
"   .%&*..#$..+..+     ",
"   .=--=;..#$.#$..+   ",
"+...>,,,''>..####$..+ ",
".)!..~{{{{]^/..$###$. ",
".(/_!..:<<<<[}~..$##. ",
"+.|~/_!..12222234..#. ",
" .54|~6_)..788889#.#. ",
" +.014:|6/)..abbb_.#. ",
"  .c7d1e4|~/)..$#~.#. ",
"  +.af7d0e4|~6g.he.#. ",
"   .ijak7l014:|.*l.#. ",
"   +..ijmkf7d1e.gk.#. ",
"     +..n$maf7do.$.#. ",
"       +..npjak7.n.#. ",
"         +..npjmq..#. ",
"           +..rs$t.#. ",
"             +..rspu. ",
"               +....+ ",
"                      "};
