/* XPM */
static char *magick[] = {
/* columns rows colors chars-per-pixel */
"22 22 15 1",
"  c #606060",
". c #808080",
"X c #a7a7a7",
"o c #aaaaaa",
"O c #b5b5b5",
"+ c #bdbdbd",
"@ c #c3c3c3",
"# c #cbcbcb",
"$ c #d1d1d1",
"% c #dcdcdc",
"& c #e4e4e4",
"* c #ececec",
"= c #f3f3f3",
"- c #fefefe",
"; c None",
/* pixels */
";;;;;;;;;;;;;;;;;;;;;;",
";;;..  .. ;;;;;;;;;;;;",
";;;.$..*+.. ;; ;;;;;;;",
";;;.--% .%+.. .. ;;;;;",
";;;.----& .*+.%+.. ;;;",
" ...#==---% .%%%%+.. ;",
".OO..#======#..+%%%+.;",
".O##O..#*==*==#..+%%.;",
" .###$O. %******@..%.;",
"; O#####O..#&&&&*&.%.;",
"; .#####$#O. @&&&# %.;",
";;.o@#@####$@..O&%.&.;",
";; .@@@@@###$$O.%# &.;",
";;;.X@@@@@@####.$@.*.;",
";;; ..O#@@@@@##.O@.%.;",
";;;;; . X++@@@@O.+.%.;",
";;;;;;; ..X+@+@@.X.%.;",
";;;;;;;;; ..X+++o..%.;",
";;;;;;;;;;; ..X+@o.%.;",
";;;;;;;;;;;;; ..XO@X.;",
";;;;;;;;;;;;;;; .... ;",
";;;;;;;;;;;;;;;;;;;;;;"
};
