/* XPM */
static const char *d_help[] = {
/* columns rows colors chars-per-pixel */
"22 22 23 1",
"  c #555555",
". c #5b5b5b",
"X c #636363",
"o c #6c6c6c",
"O c #737373",
"+ c #7b7b7b",
"@ c #838383",
"# c #8b8b8b",
"$ c #929292",
"% c #9d9d9d",
"& c #a4a4a4",
"* c #aaaaaa",
"= c #b4b4b4",
"- c #bbbbbb",
"; c #c3c3c3",
": c #cbcbcb",
"> c LightGray",
", c #dcdcdc",
"< c #e5e5e5",
"1 c #eaeaea",
"2 c #f4f4f4",
"3 c #fefefe",
"4 c None",
/* pixels */
"444444.XO+@+ooX3334444",
"4444.X@###$$$##oO>3444",
"444.@#*:<<<,;=*$#o*=44",
"44X@#:<21<>::;==&$O%&3",
"4.@#:22<:-;-*====&#+&&",
"4X#:321:<333<**===*@##",
".@*122>,32>13,&=---%+#",
"X#:22<;,2;&-3<&==-;=+@",
"O#,2<,:-*&&<3,&==-;;#@",
"+#<<<>:-=&:32***---:#@",
"@$<<>:-=&*23;&*==--,$#",
"+$>>:;-=&<3,%&**-;;>$@",
"O#::;-=*%<3-%**=--::#@",
"o#=;--==&::*&*=-;;:-#+",
"X#&--=-==&&&*==-;;>*#+",
"3o$==-==*:>:*=-;:>;##+",
"3o#&=--=*<3<*--;>:&#+O",
"3>O#*=--*<3<*-;>>*#@+o",
"43*O#*-;=*&*-:>;&#@Ooo",
"44-%++%*-:>>;-*##@OO. ",
"444=%#++@#$####@@Oo.. ",
"4443&%#@@@@@@++OOXX  4"
};
