/* XPM */
static const char * drawCursor_xpm[] = {
"32 32 5 1",
" 	g None",
".	g #FFFFFF",
"+	g #000000",
"@	g #DCDCDC",
"#	g #A0A0A0",
"..                              ",
".+.                             ",
".++.                            ",
".+++.                           ",
".++++.                          ",
".+++++.                         ",
".++++++.                        ",
".+++++++.                       ",
".++++++++.                      ",
".+++++++++.                     ",
".++++++++++.                    ",
".+++++++++++.                   ",
".+++++++....                    ",
".++++...                        ",
".++..                           ",
".+.                             ",
"..        ++++                  ",
"          +@@@+                 ",
"         +@@@@+#                ",
"         ++@@+##                ",
"        +..+++#                 ",
"        +.@@+##                 ",
"       +..@@+#                  ",
"       +.@@+##                  ",
"      +..@@+#                   ",
"      +.@@+##                   ",
"      ++@@+#                    ",
"      ++++##                    ",
"      +++##                     ",
"      ++##                      ",
"      +##                       ",
"       #                        "};
