/* XPM */
static const char * eraseCursor_xpm[] = {
"32 32 5 1",
" 	g None",
".	g #FFFFFF",
"+	g #000000",
"@	g #A0A0A0",
"#	g #DCDCDC",
"..                              ",
".+.                             ",
".++.                            ",
".+++.                           ",
".++++.                          ",
".+++++.                         ",
".++++++.                        ",
".+++++++.                       ",
".++++++++.                      ",
".+++++++++.                     ",
".++++++++++.                    ",
".+++++++++++.                   ",
".+++++++....                    ",
".++++...                        ",
".++..                           ",
".+.                             ",
"..                              ",
"            ++++++++            ",
"           +......++@           ",
"          +......+#+@           ",
"         +......+##+@           ",
"        +......+##+@@           ",
"       +......+##+@@            ",
"      +......+##+@@             ",
"     ++++++++##+@@              ",
"     +######+#+@@               ",
"     +######++@@                ",
"     ++++++++@@                 ",
"      @@@@@@@@                  ",
"                                ",
"                                ",
"                                "};
