/* XPM */
static const char * fileopen2_xpm[] = {
"22 22 106 2",
"  	c None",
". 	c #000000",
"+ 	c #ABABAB",
"@ 	c #A3D4A0",
"# 	c #6D8E6B",
"$ 	c #FCFCFC",
"% 	c #FBFBFB",
"& 	c #A9A9A9",
"* 	c #F6F6F6",
"= 	c #F5F5F5",
"- 	c #A6A6A6",
"; 	c #A2A2A2",
"> 	c #EFEFEF",
", 	c #F0F0F0",
"' 	c #F1F1F1",
") 	c #5F7C5E",
"! 	c #617E5F",
"~ 	c #9B9B9B",
"{ 	c #E7E7E7",
"] 	c #E8E8E8",
"^ 	c #EAEAEA",
"/ 	c #9E9E9E",
"( 	c #5C775B",
"_ 	c #8BB589",
": 	c #8DB88B",
"< 	c #617D5F",
"[ 	c #969696",
"} 	c #DFDFDF",
"| 	c #E0E0E0",
"1 	c #E3E3E3",
"2 	c #9A9A9A",
"3 	c #86AE84",
"4 	c #88B186",
"5 	c #8AB488",
"6 	c #8DB88A",
"7 	c #607D5F",
"8 	c #909090",
"9 	c #D6D6D6",
"0 	c #D7D7D7",
"a 	c #DBDBDB",
"b 	c #959595",
"c 	c #567054",
"d 	c #83AA80",
"e 	c #85AD83",
"f 	c #87B085",
"g 	c #8AB387",
"h 	c #8CB68A",
"i 	c #898989",
"j 	c #CDCDCD",
"k 	c #CFCFCF",
"l 	c #BBBBBB",
"m 	c #7DA27A",
"n 	c #7FA57D",
"o 	c #82A97F",
"p 	c #84AC82",
"q 	c #87AF84",
"r 	c #89B287",
"s 	c #5F7B5D",
"t 	c #838383",
"u 	c #C4C4C4",
"v 	c #A1A1A1",
"w 	c #4F674E",
"x 	c #799D76",
"y 	c #7CA17A",
"z 	c #7EA47C",
"A 	c #81A77E",
"B 	c #83AA81",
"C 	c #7D7D7D",
"D 	c #739570",
"E 	c #769973",
"F 	c #789C76",
"G 	c #7BA079",
"H 	c #7DA37B",
"I 	c #80A77D",
"J 	c #5E7A5D",
"K 	c #B2B2B2",
"L 	c #939393",
"M 	c #485F47",
"N 	c #6F906D",
"O 	c #729470",
"P 	c #759773",
"Q 	c #779B75",
"R 	c #7A9E78",
"S 	c #8B8B8B",
"T 	c #485E46",
"U 	c #6E906D",
"V 	c #71936F",
"W 	c #739772",
"X 	c #769A74",
"Y 	c #6B6B6B",
"Z 	c #848484",
"` 	c #485D46",
" .	c #70926E",
"..	c #546D52",
"+.	c #465C46",
"@.	c #6C8D6A",
"#.	c #505050",
"$.	c #465B45",
"%.	c #6C8C69",
"&.	c #4D654C",
"*.	c #465B44",
"=.	c #6B8A69",
"-.	c #4B624A",
";.	c #455A44",
">.	c #698968",
",.	c #4A6149",
"                                            ",
"      . .     . .                           ",
"      . + . . @ # . .                       ",
"      . $ % & . . @ # . .   . .             ",
"      . * = = * - . . @ # . @ # . .         ",
"  . . . ; > > > , ' ; . . @ @ @ @ # . .     ",
". ) ! . . ~ { { { { ] ^ / . . # @ @ @ # .   ",
". ( _ : < . . [ } } } } | 1 2 . . # @ @ .   ",
"  . 3 4 5 6 7 . . 8 9 9 9 9 0 a b . . @ .   ",
"  . c d e f g h ) . . i j j j j k l . @ .   ",
"    . m n o p q r _ s . . t u u u v . @ .   ",
"    . w x y z A B 3 4 5 s . . C l 2 . @ .   ",
"      . D E F G H I d e f g J . K L . @ .   ",
"      . M N O P Q R m n o p q . & S . @ .   ",
"        . . T U V W X x y z A . Y Z . @ .   ",
"            . . ` #  .D E F G ... C . @ .   ",
"                . . +.@.N O P Q . #.. @ .   ",
"                    . . $.%.U V &.. . @ .   ",
"                        . . *.=.# -.. @ .   ",
"                            . . ;.>.@.,..   ",
"                                . . . .     ",
"                                            "};
