/* XPM */
static const char * help_xpm[] = {
"22 22 298 2",
"  	c None",
". 	c #000000",
"+ 	c #020202",
"@ 	c #040404",
"# 	c #0D1600",
"$ 	c #1A2800",
"% 	c #253900",
"& 	c #304700",
"* 	c #395402",
"= 	c #395304",
"- 	c #334B04",
"; 	c #2A3C06",
"> 	c #1C2706",
", 	c #0C0C0C",
"' 	c #0A0F00",
") 	c #192700",
"! 	c #556937",
"~ 	c #98AA7F",
"{ 	c #C0CDAB",
"] 	c #D2DDC1",
"^ 	c #D3DEC1",
"/ 	c #B8CB96",
"( 	c #98B268",
"_ 	c #789A3B",
": 	c #5E7D1C",
"< 	c #3C520D",
"[ 	c #1C230C",
"} 	c #0D1500",
"| 	c #213300",
"1 	c #91A178",
"2 	c #D8E0CB",
"3 	c #ECF0E6",
"4 	c #DFE7D4",
"5 	c #CAD4B8",
"6 	c #AAB891",
"7 	c #A2B87E",
"8 	c #9CB86A",
"9 	c #90B152",
"0 	c #83A936",
"a 	c #769E21",
"b 	c #577416",
"c 	c #2B3712",
"d 	c #A2B28B",
"e 	c #F3F6F0",
"f 	c #EDF1E6",
"g 	c #D4DBC9",
"h 	c #9DA68F",
"i 	c #7B846C",
"j 	c #939B83",
"k 	c #75835C",
"l 	c #647A38",
"m 	c #729134",
"n 	c #81A731",
"o 	c #81AA28",
"p 	c #80A920",
"q 	c #66861C",
"r 	c #273016",
"s 	c #92A278",
"t 	c #F4F7F1",
"u 	c #EEF2E7",
"v 	c #DAE2CF",
"w 	c #9EA68F",
"x 	c #BFC4B9",
"y 	c #FFFFFF",
"z 	c #D4D9CB",
"A 	c #5B7131",
"B 	c #729526",
"C 	c #82A92B",
"D 	c #87AF2A",
"E 	c #8AB42A",
"F 	c #62792C",
"G 	c #1E1E1E",
"H 	c #D9E2CD",
"I 	c #EFF3E9",
"J 	c #E2E9D6",
"K 	c #AAB299",
"L 	c #B6BAAE",
"M 	c #F5F6F3",
"N 	c #A9B298",
"O 	c #DFE3D8",
"P 	c #BCC4AC",
"Q 	c #5F7B1D",
"R 	c #7FA428",
"S 	c #88AF2F",
"T 	c #8DB52F",
"U 	c #96B745",
"V 	c #404A26",
"W 	c #99AA7E",
"X 	c #F0F4E9",
"Y 	c #E4ECD8",
"Z 	c #D3DFC0",
"` 	c #95A27E",
" .	c #BBC1B2",
"..	c #86936C",
"+.	c #5B7623",
"@.	c #7F9060",
"#.	c #D3D9C7",
"$.	c #577216",
"%.	c #7CA227",
"&.	c #88AD30",
"*.	c #8DB534",
"=.	c #9FC44A",
"-.	c #6F8044",
";.	c #252525",
">.	c #C1CEAC",
",.	c #E4EDD9",
"'.	c #D6E3C2",
").	c #C3D4A5",
"!.	c #A4BA7D",
"~.	c #778E4E",
"{.	c #566C2C",
"].	c #5E7922",
"^.	c #506C13",
"/.	c #D2D8C7",
"(.	c #BCC4AA",
"_.	c #5A7813",
":.	c #7BA025",
"<.	c #87AD31",
"[.	c #8DB538",
"}.	c #97C141",
"|.	c #96AB5E",
"1.	c #232323",
"2.	c #D4DFC3",
"3.	c #D7E3C3",
"4.	c #C5D6A6",
"5.	c #B1C988",
"6.	c #9DBA67",
"7.	c #89AB49",
"8.	c #779C2C",
"9.	c #587713",
"0.	c #A3AF8A",
"a.	c #F4F5F1",
"b.	c #667B34",
"c.	c #668912",
"d.	c #78A022",
"e.	c #85AD31",
"f.	c #8CB63B",
"g.	c #90BD3F",
"h.	c #B1C96F",
"i.	c #262626",
"j.	c #3A5402",
"k.	c #D4E0C1",
"l.	c #C6D7A7",
"m.	c #B2CA89",
"n.	c #A1BF6B",
"o.	c #91B34C",
"p.	c #81A831",
"q.	c #6A8D19",
"r.	c #708347",
"s.	c #8A9B69",
"t.	c #547506",
"u.	c #6D9412",
"v.	c #79A222",
"w.	c #85AF33",
"x.	c #8CB83F",
"y.	c #90BC43",
"z.	c #C3DD7F",
"A.	c #272727",
"B.	c #385302",
"C.	c #B9CE96",
"D.	c #B3CB89",
"E.	c #A2C06C",
"F.	c #95B851",
"G.	c #89B038",
"H.	c #7DA822",
"I.	c #55760D",
"J.	c #C7CEB8",
"K.	c #BBC4A8",
"L.	c #527302",
"M.	c #678F0A",
"N.	c #719A15",
"O.	c #79A625",
"P.	c #84B136",
"Q.	c #8CBA43",
"R.	c #96C24B",
"S.	c #BCD382",
"T.	c #2C2C2C",
"U.	c #99B466",
"V.	c #95B951",
"W.	c #8CB33E",
"X.	c #84AD2B",
"Y.	c #7CA81A",
"Z.	c #55730A",
"`.	c #D3D8C7",
" +	c #7E9056",
".+	c #5F8406",
"++	c #6B960D",
"@+	c #72A01A",
"#+	c #7EAA2C",
"$+	c #89B53E",
"%+	c #8EBC46",
"&+	c #A3CC55",
"*+	c #A7B976",
"=+	c #2F2F2F",
"-+	c #7A9B3A",
";+	c #94B750",
">+	c #8CB33F",
",+	c #89B232",
"'+	c #85AF26",
")+	c #80AB1C",
"!+	c #678B10",
"~+	c #98A67A",
"{+	c #A3B189",
"]+	c #657B34",
"^+	c #678E0D",
"/+	c #719B16",
"(+	c #78A525",
"_+	c #82B036",
":+	c #8BBA45",
"<+	c #90BF4D",
"[+	c #B4D669",
"}+	c #889465",
"|+	c #323232",
"1+	c #1D2706",
"2+	c #5F7E1A",
"3+	c #87AE34",
"4+	c #89B22C",
"5+	c #89B22A",
"6+	c #85AD22",
"7+	c #7FA91C",
"8+	c #678913",
"9+	c #608310",
"0+	c #618412",
"a+	c #6F9A1A",
"b+	c #75A123",
"c+	c #7DAA32",
"d+	c #88B642",
"e+	c #8EBC4B",
"f+	c #A0CA55",
"g+	c #BFD784",
"h+	c #5B624B",
"i+	c #373737",
"j+	c #3E520D",
"k+	c #78A120",
"l+	c #86B028",
"m+	c #8AB32C",
"n+	c #8CB42D",
"o+	c #709221",
"p+	c #9BA880",
"q+	c #A6B28F",
"r+	c #99A880",
"s+	c #668A23",
"t+	c #7AA632",
"u+	c #84B140",
"v+	c #8BB94A",
"w+	c #96C351",
"x+	c #BBDB72",
"y+	c #94A072",
"z+	c #363636",
"A+	c #1D250C",
"B+	c #597516",
"C+	c #84AC21",
"D+	c #8BB52B",
"E+	c #8FB831",
"F+	c #8CB433",
"G+	c #627D23",
"H+	c #D4D9CA",
"I+	c #5A792A",
"J+	c #80AB40",
"K+	c #88B449",
"L+	c #92BE4F",
"M+	c #B6D76C",
"N+	c #ACBA83",
"O+	c #4D5141",
"P+	c #393939",
"Q+	c #68871C",
"R+	c #8DB72B",
"S+	c #8EB830",
"T+	c #8CB434",
"U+	c #627E27",
"V+	c #D4D9CC",
"W+	c #5C7B2F",
"X+	c #84AE46",
"Y+	c #96BE50",
"Z+	c #B7D571",
"`+	c #ABBA82",
" @	c #5C624C",
".@	c #63782C",
"+@	c #9BC047",
"@@	c #7EA037",
"#@	c #617E2A",
"$@	c #506A26",
"%@	c #638031",
"&@	c #81A144",
"*@	c #A7C762",
"=@	c #B5CB7D",
"-@	c #909C6F",
";@	c #6D7C43",
">@	c #90A559",
",@	c #A6BD69",
"'@	c #B4CC75",
")@	c #ACC177",
"!@	c #9AAA6E",
"~@	c #808B5F",
"{@	c #585E47",
"]@	c #343434",
"^@	c #222222",
"/@	c #2A2A2A",
"              . . . . . + @                 ",
"          . # $ % & * = - ; > ,             ",
"        ' ) ! ~ { ] ^ / ( _ : < [           ",
"      } | 1 2 3 4 5 6 7 8 9 0 a b c         ",
"    ' | d e f g h i j k l m n o p q r       ",
"  . ) s t u v w x y y y z A B C D E F G     ",
"  # ! H I J K L y M N O y P Q R S T U V     ",
". $ W X Y Z `  .M ..+.@.y #.$.%.&.*.=.-.;.  ",
". % >.,.'.).!.~.{.].^./.y (._.:.<.[.}.|.1.  ",
". & 2.3.4.5.6.7.8.9.0.y a.b.c.d.e.f.g.h.i.  ",
". j.k.l.m.n.o.p.q.r.a.y s.t.u.v.w.x.y.z.A.  ",
". B.C.D.E.F.G.H.I.J.y K.L.M.N.O.P.Q.R.S.T.  ",
"+ - U.E.V.W.X.Y.Z.`.y  +.+++@+#+$+%+&+*+=+  ",
"@ ; -+;+>+,+'+)+!+~+{+]+^+/+(+_+:+<+[+}+|+  ",
"  1+2+3+,+4+5+6+7+8+9+0+a+b+c+d+e+f+g+h+i+  ",
"  , j+k+l+m+n+4+o+p+q+r+s+t+u+v+w+x+y+z+    ",
"    A+B+C+D+E+F+G+H+y H+I+J+K+L+M+N+O+P+    ",
"      c Q+R+S+T+U+z y V+W+X+Y+Z+`+ @P+      ",
"        r .@U +@@@#@$@%@&@*@=@-@O+P+        ",
"          G V ;@>@,@'@)@!@~@{@]@P+          ",
"              ;.^@;.;./@T.=+]@              ",
"                                            "};
