/* XPM */
static const char * info_xpm[] = {
"22 22 4 1",
" 	c None",
".	c #000000",
"+	c #757575",
"@	c #0000FF",
"                      ",
"                      ",
"  ..................  ",
"  .+@@@@@@@@@@@@@@@.  ",
"  ..................  ",
"  .                .  ",
"  .                .  ",
"  .  .......       .  ",
"  .                .  ",
"  .  ...........   .  ",
"  .                .  ",
"  .                .  ",
"  .                .  ",
"  . . ....  ..     .  ",
"  .                .  ",
"  . . .......      .  ",
"  .                .  ",
"  . . .. .....     .  ",
"  .                .  ",
"  ..................  ",
"                      ",
"                      "};
