/* XPM */
static const char * segment_xpm[] = {
"19 15 2 1",
" 	c None",
".	c #000000",
"                   ",
"    ......         ",
"   ..   ..         ",
"  ..    ..         ",
"  ..         ......",
"   ....     ..  ...",
"     ....  ..    . ",
"       ..  ..   .. ",
" .     ..  .    .. ",
"..     ..  .    .. ",
" ... ...   .. ...  ",
"  .....     .....  ",
"               ..  ",
"          ..  ..   ",
"           ....    "};
