/* XPM */
static const char * stairs_xpm[] = {
"10 12 2 1",
" 	c None",
".	c #000000",
"          ",
"    ......",
"   ..   ..",
"  ..    ..",
"  ..      ",
"   ....   ",
"     .... ",
"       .. ",
" .     .. ",
"..     .. ",
" ... ...  ",
"  .....   "};
