/* XPM */
static const char * superimp_xpm[] = {
"22 22 70 1",
" 	c None",
".	c #020204",
"+	c #161604",
"@	c #0E0E34",
"#	c #16162C",
"$	c #12123C",
"%	c #322E1C",
"&	c #363224",
"*	c #161644",
"=	c #1D1D59",
"-	c #232369",
";	c #262677",
">	c #3A3A74",
",	c #777726",
"'	c #7E7A3C",
")	c #4C4C48",
"!	c #5E5E64",
"~	c #666654",
"{	c #2D2D88",
"]	c #29299C",
"^	c #323299",
"/	c #2E2EA4",
"(	c #2E2EB4",
"_	c #3636A7",
":	c #3A3AB7",
"<	c #3E3EC4",
"[	c #4949BC",
"}	c #4A4AC7",
"|	c #4E4EDC",
"1	c #5252CC",
"2	c #5656DB",
"3	c #5858E4",
"4	c #FA1340",
"5	c #86823C",
"6	c #A69E3C",
"7	c #BAB23C",
"8	c #9A964C",
"9	c #9E9E7C",
"0	c #A29E54",
"a	c #BEB644",
"b	c #BBB959",
"c	c #BEA27C",
"d	c #C2BA4C",
"e	c #C7BE56",
"f	c #CABE64",
"g	c #DAD25C",
"h	c #CAC365",
"i	c #D3CD6C",
"j	c #D2CC74",
"k	c #DBD666",
"l	c #DAD478",
"m	c #E6D66C",
"n	c #E4DC78",
"o	c #EAE27C",
"p	c #CEBE8C",
"q	c #CECE94",
"r	c #D2C694",
"s	c #E2DE84",
"t	c #E8E585",
"u	c #F2EA8C",
"v	c #F2EE94",
"w	c #FBFA89",
"x	c #FDFA98",
"y	c #E2E2BC",
"z	c #FAEEB4",
"A	c #FDFDA9",
"B	c #FDFCB7",
"C	c #FEFEC8",
"D	c #FEFDD6",
"E	c #FEFEEB",
"         .            ",
"         r.           ",
"         DD...        ",
"        .EEEEEAp...   ",
"       .#;{>!EDDzsc.. ",
"      .}}(:__^)yCBBBzg",
"     .111EE__/-~CBAAv6",
"     2|32EE::_{;jjiie.",
"    .223|}}::_{;8hhh7.",
"    .22|EEE(:_{-%ihe6.",
"    .112|EE([_{-%iff,.",
"    .[}}}EE]^^;='ife. ",
"   ..}[}}EE]_^-*bfhh. ",
"   p9::[[EE__;-$hhhe. ",
"  .BB&]_//_;-=@5hhn6. ",
" .pABq)^^^{;-=5iilt,..",
" ..uxBAt0&&'biktxxb...",
"   .dxAAutonstxxxx6.. ",
"     ..amxBAxxxxxw..  ",
"       ..agAAxxwwg..  ",
"           ...ktg,    ",
"              +.,.    "};
