/* XPM */
static const char * window1_xpm[] = {
"21 12 2 1",
" 	c None",
".	c #000000",
"                     ",
"   ..   .    ..   .. ",
"   ..   .    ..   .. ",
" ...    .   ...  ..  ",
"  ..    .   ...  ..  ",
"  ..    .   ...  ..  ",
"  ..    .  . .. ..   ",
"  .     . .. .. ..   ",
" ..     .... .. .    ",
" ..     ...   ...    ",
" ..     ..    ..     ",
" .      ..    ..     "};
