/* XPM */
static const char * window2_xpm[] = {
"24 12 2 1",
" 	c None",
".	c #000000",
"                        ",
"    ....   .    ..   .. ",
"   .. ...  .    ..   .. ",
"  ..   ..  .   ...  ..  ",
"       ..  .   ...  ..  ",
"      ..   .   ...  ..  ",
"    ...    .  . .. ..   ",
"   ..      . .. .. ..   ",
"  ..       .... .. .    ",
" ..        ...   ...    ",
"..         ..    ..     ",
".......    ..    ..     "};
